<?xml version="1.0" encoding="UTF-8"?>
<svg width="24px" height="24px" viewBox="0 0 24 24" version="1.1" xmlns="http://www.w3.org/2000/svg" xmlns:xlink="http://www.w3.org/1999/xlink">
    <!-- Generator: Sketch 48.2 (47327) - http://www.bohemiancoding.com/sketch -->
    <title>Imported Layers Copy</title>
    <desc>Created with Sketch.</desc>
    <defs></defs>
    <g id="btn_facebook_signin" stroke="none" stroke-width="1" fill="none" fill-rule="evenodd" transform="translate(-15.000000, -15.000000)">
        <path d="M37.6754292,15 L16.3245708,15 C15.5929545,15 15,15.5928646 15,16.3245708 L15,37.6754292 C15,38.4069556 15.5929545,39 16.3245708,39 L27.8191117,39 L27.8191117,29.7059732 L24.691488,29.7059732 L24.691488,26.083861 L27.8191117,26.083861 L27.8191117,23.4126882 C27.8191117,20.3127609 29.7124476,18.6248098 32.4777702,18.6248098 C33.802341,18.6248098 34.9408604,18.7234558 35.2725876,18.7675182 L35.2725876,22.0070965 L33.3547026,22.0079957 C31.8507347,22.0079957 31.559563,22.7226165 31.559563,23.7713025 L31.559563,26.083861 L35.1463352,26.083861 L34.6792734,29.7059732 L31.559563,29.7059732 L31.559563,39 L37.6754292,39 C38.4069556,39 39,38.4069556 39,37.6754292 L39,16.3245708 C39,15.5928646 38.4069556,15 37.6754292,15" id="Imported-Layers-Copy" fill="#FFFFFF"></path>
    </g>
</svg>